<svg id="Layer_1" data-name="Layer 1" xmlns="http://www.w3.org/2000/svg" xmlns:xlink="http://www.w3.org/1999/xlink" viewBox="0 0 850.75 545.19"><defs><style>.cls-1{fill:#003049;}.cls-2{fill:url(#linear-gradient);}.cls-3{fill:url(#linear-gradient-2);}</style><linearGradient id="linear-gradient" x1="-19.07" y1="-18.54" x2="137.99" y2="241.38" gradientUnits="userSpaceOnUse"><stop offset="0" stop-color="#f77f00"/><stop offset="1" stop-color="#fcbf49"/></linearGradient><linearGradient id="linear-gradient-2" x1="0" y1="274.93" x2="268.52" y2="274.93" xlink:href="#linear-gradient"/></defs><path class="cls-1" d="M475.23,489.17H533.9c60.74,0,78.81,23.11,78.81,75.26v87.4c0,53.33-18.07,77.33-77.63,77.33H475.23Zm59.26,205.92c26.67,0,28.15-12.74,28.15-37.93V557.91c0-24.3-2.67-34.37-28.44-34.37H523.82V695.09Z" transform="translate(-174.63 -327.4)"/><path class="cls-1" d="M645,489.17h58.67c60.74,0,78.81,23.11,78.81,75.26v87.4c0,53.33-18.07,77.33-77.63,77.33H645Zm59.26,205.92c26.67,0,28.15-12.74,28.15-37.93V557.91c0-24.3-2.67-34.37-28.44-34.37H693.59V695.09Z" transform="translate(-174.63 -327.4)"/><path class="cls-1" d="M815.37,489.17H864v240H815.37Z" transform="translate(-174.63 -327.4)"/><path class="cls-1" d="M894.47,657.75l42.07-7.11c.89,29.93,8,44.45,23.71,44.45,12.44,0,16.29-9.19,16.29-19.56,0-20.44-10.37-32-26.37-45.92L925.28,608c-17.77-15.11-30.51-32.59-30.51-60.74,0-39.41,25.18-61,65.18-61,48.29,0,58.07,35.86,59.85,66.67l-42.37,6.22c-.59-21.92-3-37-19-37-11.26,0-16.89,10.07-16.89,20.44,0,17.19,8.29,26.37,21.63,37.92l24.29,21.34c20.15,17.48,36.74,38.51,36.74,71.11,0,34.36-24.59,59.55-61.92,59.55C917.88,732.42,896.54,708.71,894.47,657.75Z" transform="translate(-174.63 -327.4)"/><rect class="cls-2" width="134.26" height="248.24"/><path class="cls-1" d="M443.14,731.13H397.68V488.46c0-57.42-39.83-104.15-88.8-104.15S220.09,431,220.09,488.46V731.13H174.62V488.46c0-82.49,60.23-149.61,134.26-149.61S443.14,406,443.14,488.46Z" transform="translate(-174.63 -327.4)"/><rect class="cls-3" y="230.1" width="268.52" height="89.66"/><path class="cls-1" d="M803.55,793.16q0,17-11.62,26.19t-33.23,9.16H745.51V872.6h-13V760.5h29.06Q803.55,760.5,803.55,793.16Zm-58,24.16h11.73q17.32,0,25.07-5.6t7.75-17.94q0-11.12-7.29-16.56t-22.69-5.45H745.51Z" transform="translate(-174.63 -327.4)"/><path class="cls-1" d="M910.9,872.6l-14-35.66H852l-13.8,35.66H825L869.34,760h11L924.39,872.6Zm-18-47.39-13-34.73q-2.52-6.6-5.21-16.18a145.47,145.47,0,0,1-4.83,16.18l-13.19,34.73Z" transform="translate(-174.63 -327.4)"/><path class="cls-1" d="M981.36,816.55l29.91-56h14.11L988,829.12V872.6H974.77V829.74L937.43,760.5h14.26Z" transform="translate(-174.63 -327.4)"/></svg>