<svg width="56" height="56" viewBox="0 0 56 56" fill="none" xmlns="http://www.w3.org/2000/svg">
<path d="M46.9494 41.7594C45.9177 39.3158 44.4207 37.0962 42.5415 35.2242C40.6681 33.3468 38.4489 31.85 36.0064 30.8164C35.9845 30.8055 35.9626 30.8 35.9408 30.7891C39.3478 28.3281 41.5626 24.3195 41.5626 19.7969C41.5626 12.3047 35.4923 6.23438 28.0001 6.23438C20.5079 6.23438 14.4376 12.3047 14.4376 19.7969C14.4376 24.3195 16.6525 28.3281 20.0595 30.7945C20.0376 30.8055 20.0158 30.8109 19.9939 30.8219C17.5439 31.8555 15.3454 33.3375 13.4587 35.2297C11.5814 37.1031 10.0845 39.3223 9.05092 41.7648C8.03549 44.1561 7.48785 46.7198 7.43764 49.3172C7.43618 49.3756 7.44641 49.4336 7.46775 49.488C7.48908 49.5423 7.52107 49.5919 7.56185 49.6336C7.60262 49.6754 7.65134 49.7086 7.70515 49.7313C7.75895 49.754 7.81675 49.7656 7.87514 49.7656H11.1564C11.397 49.7656 11.5884 49.5742 11.5939 49.3391C11.7033 45.1172 13.3986 41.1633 16.3954 38.1664C19.4962 35.0656 23.6142 33.3594 28.0001 33.3594C32.3861 33.3594 36.504 35.0656 39.6048 38.1664C42.6017 41.1633 44.297 45.1172 44.4064 49.3391C44.4119 49.5797 44.6033 49.7656 44.8439 49.7656H48.1251C48.1835 49.7656 48.2413 49.754 48.2951 49.7313C48.3489 49.7086 48.3977 49.6754 48.4384 49.6336C48.4792 49.5919 48.5112 49.5423 48.5325 49.488C48.5539 49.4336 48.5641 49.3756 48.5626 49.3172C48.5079 46.7031 47.9665 44.1602 46.9494 41.7594V41.7594ZM28.0001 29.2031C25.49 29.2031 23.1275 28.2242 21.3501 26.4469C19.5728 24.6695 18.5939 22.307 18.5939 19.7969C18.5939 17.2867 19.5728 14.9242 21.3501 13.1469C23.1275 11.3695 25.49 10.3906 28.0001 10.3906C30.5103 10.3906 32.8728 11.3695 34.6501 13.1469C36.4275 14.9242 37.4064 17.2867 37.4064 19.7969C37.4064 22.307 36.4275 24.6695 34.6501 26.4469C32.8728 28.2242 30.5103 29.2031 28.0001 29.2031Z" fill="#032231"/>
</svg>
