<svg width="56" height="56" viewBox="0 0 56 56" fill="none" xmlns="http://www.w3.org/2000/svg">
<path d="M28.0003 4.66663C15.1203 4.66663 4.66699 15.12 4.66699 28C4.66699 40.88 15.1203 51.3333 28.0003 51.3333C40.8803 51.3333 51.3337 40.88 51.3337 28C51.3337 15.12 40.8803 4.66663 28.0003 4.66663ZM16.3337 31.5C14.397 31.5 12.8337 29.9366 12.8337 28C12.8337 26.0633 14.397 24.5 16.3337 24.5C18.2703 24.5 19.8337 26.0633 19.8337 28C19.8337 29.9366 18.2703 31.5 16.3337 31.5ZM28.0003 31.5C26.0637 31.5 24.5003 29.9366 24.5003 28C24.5003 26.0633 26.0637 24.5 28.0003 24.5C29.937 24.5 31.5003 26.0633 31.5003 28C31.5003 29.9366 29.937 31.5 28.0003 31.5ZM39.667 31.5C37.7303 31.5 36.167 29.9366 36.167 28C36.167 26.0633 37.7303 24.5 39.667 24.5C41.6037 24.5 43.167 26.0633 43.167 28C43.167 29.9366 41.6037 31.5 39.667 31.5Z" fill="#FFAD0F"/>
</svg>
