<svg width="56" height="56" viewBox="0 0 56 56" fill="none" xmlns="http://www.w3.org/2000/svg">
<path d="M10.5 5.25V50.75H45.5V16.8L44.975 16.275L34.475 5.775L33.95 5.25H10.5V5.25ZM14 8.75H31.5V19.25H42V47.25H14V8.75ZM35 11.2L39.55 15.75H35V11.2ZM17.5 22.75V26.25H38.5V22.75H17.5ZM17.5 31.5V35H29.75V31.5H17.5ZM33.25 31.5V35H38.5V31.5H33.25ZM17.5 38.5V42H29.75V38.5H17.5ZM33.25 38.5V42H38.5V38.5H33.25Z" fill="#47C363"/>
<circle cx="16.7996" cy="12.6" r="11.2" fill="#FAF9F7"/>
<path d="M11.1992 13.1334L14.9326 16.8667L22.3992 8.8667" fill="#FAF9F7"/>
<path d="M11.1992 13.1334L14.9326 16.8667L22.3992 8.8667" stroke="#47C363" stroke-linecap="round" stroke-linejoin="round"/>
</svg>
