<svg width="56" height="56" viewBox="0 0 56 56" fill="none" xmlns="http://www.w3.org/2000/svg">
<path d="M10.5 5.25V50.75H45.5V16.8L44.975 16.275L34.475 5.775L33.95 5.25H10.5V5.25ZM14 8.75H31.5V19.25H42V47.25H14V8.75ZM35 11.2L39.55 15.75H35V11.2ZM17.5 22.75V26.25H38.5V22.75H17.5ZM17.5 31.5V35H29.75V31.5H17.5ZM33.25 31.5V35H38.5V31.5H33.25ZM17.5 38.5V42H29.75V38.5H17.5ZM33.25 38.5V42H38.5V38.5H33.25Z" fill="#FFAD0F"/>
<path d="M16.7996 1.40002C10.6172 1.40002 5.59961 6.41762 5.59961 12.6C5.59961 18.7824 10.6172 23.8 16.7996 23.8C22.982 23.8 27.9996 18.7824 27.9996 12.6C27.9996 6.41762 22.982 1.40002 16.7996 1.40002ZM11.1996 14.28C10.27 14.28 9.51961 13.5296 9.51961 12.6C9.51961 11.6704 10.27 10.92 11.1996 10.92C12.1292 10.92 12.8796 11.6704 12.8796 12.6C12.8796 13.5296 12.1292 14.28 11.1996 14.28ZM16.7996 14.28C15.87 14.28 15.1196 13.5296 15.1196 12.6C15.1196 11.6704 15.87 10.92 16.7996 10.92C17.7292 10.92 18.4796 11.6704 18.4796 12.6C18.4796 13.5296 17.7292 14.28 16.7996 14.28ZM22.3996 14.28C21.47 14.28 20.7196 13.5296 20.7196 12.6C20.7196 11.6704 21.47 10.92 22.3996 10.92C23.3292 10.92 24.0796 11.6704 24.0796 12.6C24.0796 13.5296 23.3292 14.28 22.3996 14.28Z" fill="#023047"/>
<circle cx="11.1997" cy="12.6001" r="1.86667" fill="white"/>
<circle cx="16.7993" cy="12.6001" r="1.86667" fill="white"/>
<circle cx="22.3999" cy="12.6001" r="1.86667" fill="white"/>
</svg>
