<svg width="28" height="28" viewBox="0 0 28 28" fill="none" xmlns="http://www.w3.org/2000/svg">
<path d="M24.6167 14.5834L26.25 16.2284L18.6317 23.9167L14.5833 19.8334L16.2167 18.1884L18.6317 20.615L24.6167 14.5834ZM12.8333 4.66669C14.071 4.66669 15.258 5.15835 16.1332 6.03352C17.0083 6.90869 17.5 8.09568 17.5 9.33335C17.5 10.571 17.0083 11.758 16.1332 12.6332C15.258 13.5084 14.071 14 12.8333 14C11.5957 14 10.4087 13.5084 9.5335 12.6332C8.65833 11.758 8.16667 10.571 8.16667 9.33335C8.16667 8.09568 8.65833 6.90869 9.5335 6.03352C10.4087 5.15835 11.5957 4.66669 12.8333 4.66669ZM12.8333 7.00002C12.2145 7.00002 11.621 7.24585 11.1834 7.68344C10.7458 8.12102 10.5 8.71452 10.5 9.33335C10.5 9.95219 10.7458 10.5457 11.1834 10.9833C11.621 11.4209 12.2145 11.6667 12.8333 11.6667C13.4522 11.6667 14.0457 11.4209 14.4832 10.9833C14.9208 10.5457 15.1667 9.95219 15.1667 9.33335C15.1667 8.71452 14.9208 8.12102 14.4832 7.68344C14.0457 7.24585 13.4522 7.00002 12.8333 7.00002ZM12.8333 15.1667C13.6267 15.1667 14.5833 15.2717 15.645 15.47L13.6967 17.4184L12.8333 17.3834C9.36833 17.3834 5.71667 19.0867 5.71667 19.8334V21.1167H12.95L15.1667 23.3334H3.5V19.8334C3.5 16.73 9.71833 15.1667 12.8333 15.1667Z" fill="white"/>
</svg>
