<svg width="28" height="28" viewBox="0 0 28 28" fill="none" xmlns="http://www.w3.org/2000/svg">
<path d="M19.833 19.39C20.5547 19.39 21.1397 18.805 21.1397 18.0833C21.1397 17.3617 20.5547 16.7767 19.833 16.7767C19.1114 16.7767 18.5264 17.3617 18.5264 18.0833C18.5264 18.805 19.1114 19.39 19.833 19.39Z" fill="white"/>
<path fill-rule="evenodd" clip-rule="evenodd" d="M19.8331 20.4167C18.9814 20.4167 17.2781 20.8367 17.2197 21.6767C17.8031 22.505 18.7597 23.0417 19.8331 23.0417C20.9064 23.0417 21.8631 22.505 22.4464 21.6767C22.3881 20.8367 20.6847 20.4167 19.8331 20.4167Z" fill="white"/>
<path fill-rule="evenodd" clip-rule="evenodd" d="M21 12.9383V7.315L12.25 3.5L3.5 7.315V13.0433C3.5 18.34 7.23333 23.2983 12.25 24.5C12.8917 24.3483 13.51 24.1267 14.1167 23.8583C14.7597 24.7778 15.6152 25.5284 16.6104 26.0464C17.6057 26.5643 18.7113 26.8343 19.8333 26.8333C23.695 26.8333 26.8333 23.695 26.8333 19.8333C26.8333 16.3683 24.3133 13.4983 21 12.9383ZM12.8333 19.8333C12.8333 20.4867 12.9267 21.1283 13.1017 21.7233C12.8217 21.8517 12.5417 21.98 12.25 22.0733C8.55167 20.9067 5.83333 17.1267 5.83333 13.0433V8.84333L12.25 6.04333L18.6667 8.84333V12.9383C15.3533 13.4983 12.8333 16.3683 12.8333 19.8333ZM19.8333 24.5C17.255 24.5 15.1667 22.4117 15.1667 19.8333C15.1667 17.255 17.255 15.1667 19.8333 15.1667C22.4117 15.1667 24.5 17.255 24.5 19.8333C24.5 22.4117 22.4117 24.5 19.8333 24.5Z" fill="white"/>
</svg>
