<svg width="28" height="29" viewBox="0 0 28 29" fill="none" xmlns="http://www.w3.org/2000/svg">
<path d="M13.9997 27.0404C20.9262 27.0404 26.5413 21.4254 26.5413 14.4988C26.5413 7.57221 20.9262 1.95712 13.9997 1.95712C7.0731 1.95712 1.45801 7.57221 1.45801 14.4988C1.45801 21.4254 7.0731 27.0404 13.9997 27.0404Z" stroke="white" stroke-width="1.8" stroke-linecap="round" stroke-linejoin="round"/>
<path d="M13.9997 21.7904C18.0268 21.7904 21.2913 18.5259 21.2913 14.4988C21.2913 10.4717 18.0268 7.20712 13.9997 7.20712C9.9726 7.20712 6.70801 10.4717 6.70801 14.4988C6.70801 18.5259 9.9726 21.7904 13.9997 21.7904Z" stroke="white" stroke-width="1.8" stroke-linecap="round" stroke-linejoin="round"/>
<path d="M19.1558 9.34269L22.8675 5.63094M5.13184 23.3666L8.84359 19.6549M19.1558 19.6549L22.8675 23.3666M5.13184 5.63094L8.84359 9.34269" stroke="white" stroke-width="1.8" stroke-linecap="round" stroke-linejoin="round"/>
</svg>
