<svg width="28" height="28" viewBox="0 0 28 28" fill="none" xmlns="http://www.w3.org/2000/svg">
<path d="M13.9999 8.74999C14.348 8.74999 14.6818 8.61171 14.928 8.36557C15.1741 8.11942 15.3124 7.78558 15.3124 7.43749C15.3124 7.08939 15.1741 6.75555 14.928 6.50941C14.6818 6.26327 14.348 6.12499 13.9999 6.12499C13.6518 6.12499 13.3179 6.26327 13.0718 6.50941C12.8257 6.75555 12.6874 7.08939 12.6874 7.43749C12.6874 7.78558 12.8257 8.11942 13.0718 8.36557C13.3179 8.61171 13.6518 8.74999 13.9999 8.74999ZM15.2879 2.54624C14.9238 2.25037 14.469 2.08887 13.9999 2.08887C13.5308 2.08887 13.0759 2.25037 12.7119 2.54624L3.95838 9.65999C2.89438 10.528 3.50688 12.25 4.87888 12.25H5.24988V19.6C4.21038 20.1302 3.49988 21.21 3.49988 22.4577V23.625C3.49988 23.8571 3.59206 24.0796 3.75616 24.2437C3.92025 24.4078 4.14281 24.5 4.37488 24.5H23.6249C23.8569 24.5 24.0795 24.4078 24.2436 24.2437C24.4077 24.0796 24.4999 23.8571 24.4999 23.625V22.4577C24.4999 21.2117 23.7894 20.1302 22.7499 19.6V12.25H23.1209C24.4929 12.25 25.1054 10.5262 24.0396 9.65999L15.2896 2.54449L15.2879 2.54624ZM13.8179 3.90424C13.8699 3.86219 13.9347 3.83925 14.0016 3.83925C14.0685 3.83925 14.1334 3.86219 14.1854 3.90424L22.2966 10.5H5.70138L13.8179 3.90249V3.90424ZM20.9999 19.25H19.2499V12.25H20.9999V19.25ZM17.4999 19.25H14.8749V12.25H17.4999V19.25ZM13.1249 19.25H10.4999V12.25H13.1249V19.25ZM21.2921 21C22.0971 21 22.7499 21.6527 22.7499 22.4577V22.75H5.24988V22.4577C5.24988 21.6527 5.90263 21 6.70763 21H21.2921ZM8.74988 19.25H6.99988V12.25H8.74988V19.25Z" fill="white"/>
</svg>
