<svg width="40" height="40" viewBox="0 0 40 40" fill="none" xmlns="http://www.w3.org/2000/svg">
<path d="M7.5 3.75V36.25H32.5V12L32.125 11.625L24.625 4.125L24.25 3.75H7.5ZM10 6.25H22.5V13.75H30V33.75H10V6.25ZM25 8L28.25 11.25H25V8ZM12.5 16.25V18.75H27.5V16.25H12.5ZM12.5 22.5V25H21.25V22.5H12.5ZM23.75 22.5V25H27.5V22.5H23.75ZM12.5 27.5V30H21.25V27.5H12.5ZM23.75 27.5V30H27.5V27.5H23.75Z" fill="#47C363"/>
<circle cx="12" cy="9" r="8" fill="#FAF9F7"/>
<path d="M8 9.38093L10.6667 12.0476L16 6.33331" fill="#FAF9F7"/>
<path d="M8 9.38093L10.6667 12.0476L16 6.33331" stroke="#47C363" stroke-linecap="round" stroke-linejoin="round"/>
</svg>
