<svg width="40" height="40" viewBox="0 0 40 40" fill="none" xmlns="http://www.w3.org/2000/svg">
<path d="M7.5 3.75V36.25H32.5V12L32.125 11.625L24.625 4.125L24.25 3.75H7.5ZM10 6.25H22.5V13.75H30V33.75H10V6.25ZM25 8L28.25 11.25H25V8ZM12.5 16.25V18.75H27.5V16.25H12.5ZM12.5 22.5V25H21.25V22.5H12.5ZM23.75 22.5V25H27.5V22.5H23.75ZM12.5 27.5V30H21.25V27.5H12.5ZM23.75 27.5V30H27.5V27.5H23.75Z" fill="#FFAD0F"/>
<path d="M12 1C7.584 1 4 4.584 4 9C4 13.416 7.584 17 12 17C16.416 17 20 13.416 20 9C20 4.584 16.416 1 12 1ZM8 10.2C7.336 10.2 6.8 9.664 6.8 9C6.8 8.336 7.336 7.8 8 7.8C8.664 7.8 9.2 8.336 9.2 9C9.2 9.664 8.664 10.2 8 10.2ZM12 10.2C11.336 10.2 10.8 9.664 10.8 9C10.8 8.336 11.336 7.8 12 7.8C12.664 7.8 13.2 8.336 13.2 9C13.2 9.664 12.664 10.2 12 10.2ZM16 10.2C15.336 10.2 14.8 9.664 14.8 9C14.8 8.336 15.336 7.8 16 7.8C16.664 7.8 17.2 8.336 17.2 9C17.2 9.664 16.664 10.2 16 10.2Z" fill="#023047"/>
<circle cx="8.00033" cy="8.99999" r="1.33333" fill="white"/>
<circle cx="12.0003" cy="8.99999" r="1.33333" fill="white"/>
<circle cx="16.0003" cy="8.99999" r="1.33333" fill="white"/>
</svg>
