<svg width="40" height="40" viewBox="0 0 40 40" fill="none" xmlns="http://www.w3.org/2000/svg">
<path d="M19.9997 3.33331C10.7997 3.33331 3.33301 10.8 3.33301 20C3.33301 29.2 10.7997 36.6666 19.9997 36.6666C29.1997 36.6666 36.6663 29.2 36.6663 20C36.6663 10.8 29.1997 3.33331 19.9997 3.33331ZM11.6663 22.5C10.283 22.5 9.16634 21.3833 9.16634 20C9.16634 18.6166 10.283 17.5 11.6663 17.5C13.0497 17.5 14.1663 18.6166 14.1663 20C14.1663 21.3833 13.0497 22.5 11.6663 22.5ZM19.9997 22.5C18.6163 22.5 17.4997 21.3833 17.4997 20C17.4997 18.6166 18.6163 17.5 19.9997 17.5C21.383 17.5 22.4997 18.6166 22.4997 20C22.4997 21.3833 21.383 22.5 19.9997 22.5ZM28.333 22.5C26.9497 22.5 25.833 21.3833 25.833 20C25.833 18.6166 26.9497 17.5 28.333 17.5C29.7163 17.5 30.833 18.6166 30.833 20C30.833 21.3833 29.7163 22.5 28.333 22.5Z" fill="#FFAD0F"/>
</svg>
