<svg width="28" height="28" viewBox="0 0 28 28" fill="none" xmlns="http://www.w3.org/2000/svg">
<path fill-rule="evenodd" clip-rule="evenodd" d="M5.22621 1.86664H5.13288C4.70541 1.86664 4.33768 1.86664 4.01288 1.94317C3.51007 2.06332 3.05033 2.32032 2.68461 2.68571C2.3189 3.0511 2.06148 3.5106 1.94088 4.01331C1.86621 4.33811 1.86621 4.70397 1.86621 5.1333V9.79997C1.86621 10.2274 1.86621 10.5952 1.94274 10.92C2.06289 11.4228 2.3199 11.8825 2.68528 12.2482C3.05067 12.614 3.51017 12.8714 4.01288 12.992C4.33768 13.0666 4.70354 13.0666 5.13288 13.0666H9.79954C10.227 13.0666 10.5947 13.0666 10.9195 12.9901C11.4224 12.87 11.8821 12.613 12.2478 12.2476C12.6135 11.8822 12.8709 11.4227 12.9915 10.92C13.0662 10.5952 13.0662 10.2293 13.0662 9.79997V5.1333C13.0662 4.70584 13.0662 4.33811 12.9897 4.01331C12.8695 3.51049 12.6125 3.05076 12.2471 2.68504C11.8818 2.31933 11.4222 2.06191 10.9195 1.9413C10.5947 1.86664 10.2289 1.86664 9.79954 1.86664H5.22621ZM4.44781 3.75944C4.52808 3.74077 4.65314 3.7333 5.22621 3.7333H9.70621C10.2811 3.7333 10.4043 3.7389 10.4846 3.75944C10.6523 3.79954 10.8056 3.8853 10.9275 4.00721C11.0494 4.12912 11.1352 4.28242 11.1753 4.4501C11.1939 4.5285 11.1995 4.6517 11.1995 5.22664V9.70664C11.1995 10.2816 11.1939 10.4048 11.1734 10.485C11.1333 10.6527 11.0476 10.806 10.9256 10.9279C10.8037 11.0498 10.6504 11.1356 10.4827 11.1757C10.4062 11.1925 10.283 11.2 9.70621 11.2H5.22621C4.65128 11.2 4.52808 11.1944 4.44781 11.1738C4.28013 11.1337 4.12683 11.048 4.00492 10.9261C3.883 10.8042 3.79724 10.6509 3.75714 10.4832C3.74034 10.4066 3.73288 10.2834 3.73288 9.70664V5.22664C3.73288 4.6517 3.73848 4.5285 3.75901 4.44824C3.79911 4.28056 3.88487 4.12726 4.00678 4.00534C4.1287 3.88343 4.282 3.79767 4.44968 3.75757L4.44781 3.75944ZM18.2929 1.86664H18.1995C17.7721 1.86664 17.4043 1.86664 17.0795 1.94317C16.5767 2.06332 16.117 2.32032 15.7513 2.68571C15.3856 3.0511 15.1281 3.5106 15.0075 4.01331C14.9329 4.33811 14.9329 4.70397 14.9329 5.1333V9.79997C14.9329 10.2274 14.9329 10.5952 15.0094 10.92C15.1296 11.4228 15.3866 11.8825 15.752 12.2482C16.1173 12.614 16.5768 12.8714 17.0795 12.992C17.4043 13.0666 17.7702 13.0666 18.1995 13.0666H22.8662C23.2937 13.0666 23.6614 13.0666 23.9862 12.9901C24.489 12.87 24.9488 12.613 25.3145 12.2476C25.6802 11.8822 25.9376 11.4227 26.0582 10.92C26.1329 10.5952 26.1329 10.2293 26.1329 9.79997V5.1333C26.1329 4.70584 26.1329 4.33811 26.0563 4.01331C25.9362 3.51049 25.6792 3.05076 25.3138 2.68504C24.9484 2.31933 24.4889 2.06191 23.9862 1.9413C23.6614 1.86664 23.2955 1.86664 22.8662 1.86664H18.2929V1.86664ZM17.5145 3.75944C17.5947 3.74077 17.7198 3.7333 18.2929 3.7333H22.7729C23.3478 3.7333 23.471 3.7389 23.5513 3.75944C23.719 3.79954 23.8723 3.8853 23.9942 4.00721C24.1161 4.12912 24.2018 4.28242 24.2419 4.4501C24.2606 4.5285 24.2662 4.6517 24.2662 5.22664V9.70664C24.2662 10.2816 24.2587 10.4048 24.2401 10.485C24.2 10.6527 24.1142 10.806 23.9923 10.9279C23.8704 11.0498 23.7171 11.1356 23.5494 11.1757C23.471 11.1944 23.3478 11.2 22.7729 11.2H18.2929C17.7179 11.2 17.5947 11.1944 17.5145 11.1738C17.3468 11.1337 17.1935 11.048 17.0716 10.9261C16.9497 10.8042 16.8639 10.6509 16.8238 10.4832C16.807 10.4066 16.7995 10.2834 16.7995 9.70664V5.22664C16.7995 4.6517 16.8051 4.5285 16.8257 4.44824C16.8658 4.28056 16.9515 4.12726 17.0735 4.00534C17.1954 3.88343 17.3487 3.79767 17.5163 3.75757L17.5145 3.75944ZM5.13288 14.9333H9.79954C10.227 14.9333 10.5947 14.9333 10.9195 15.0098C11.4224 15.13 11.8821 15.387 12.2478 15.7524C12.6135 16.1178 12.8709 16.5773 12.9915 17.08C13.0662 17.4048 13.0662 17.7706 13.0662 18.2V22.8666C13.0662 23.2941 13.0662 23.6618 12.9897 23.9866C12.8695 24.4895 12.6125 24.9492 12.2471 25.3149C11.8818 25.6806 11.4222 25.938 10.9195 26.0586C10.5947 26.1333 10.2289 26.1333 9.79954 26.1333H5.13288C4.70541 26.1333 4.33768 26.1333 4.01288 26.0568C3.51007 25.9366 3.05033 25.6796 2.68461 25.3142C2.3189 24.9488 2.06148 24.4893 1.94088 23.9866C1.86621 23.6618 1.86621 23.296 1.86621 22.8666V18.2C1.86621 17.7725 1.86621 17.4048 1.94274 17.08C2.06289 16.5772 2.3199 16.1174 2.68528 15.7517C3.05067 15.386 3.51017 15.1286 4.01288 15.008C4.33768 14.9333 4.70354 14.9333 5.13288 14.9333V14.9333ZM5.22621 16.8C4.65128 16.8 4.52808 16.8056 4.44781 16.8261C4.28013 16.8662 4.12683 16.952 4.00492 17.0739C3.883 17.1958 3.79724 17.3491 3.75714 17.5168C3.74034 17.5933 3.73288 17.7165 3.73288 18.2933V22.7733C3.73288 23.3482 3.73848 23.4714 3.75901 23.5517C3.79911 23.7194 3.88487 23.8727 4.00678 23.9946C4.1287 24.1165 4.282 24.2023 4.44968 24.2424C4.52808 24.261 4.65128 24.2666 5.22621 24.2666H9.70621C10.2811 24.2666 10.4043 24.2592 10.4846 24.2405C10.6523 24.2004 10.8056 24.1146 10.9275 23.9927C11.0494 23.8708 11.1352 23.7175 11.1753 23.5498C11.1939 23.4714 11.1995 23.3482 11.1995 22.7733V18.2933C11.1995 17.7184 11.1939 17.5952 11.1734 17.5149C11.1333 17.3472 11.0476 17.1939 10.9256 17.072C10.8037 16.9501 10.6504 16.8643 10.4827 16.8242C10.4062 16.8074 10.283 16.8 9.70621 16.8H5.22621ZM18.2929 14.9333H18.1995C17.7721 14.9333 17.4043 14.9333 17.0795 15.0098C16.5767 15.13 16.117 15.387 15.7513 15.7524C15.3856 16.1178 15.1281 16.5773 15.0075 17.08C14.9329 17.4048 14.9329 17.7706 14.9329 18.2V22.8666C14.9329 23.2941 14.9329 23.6618 15.0094 23.9866C15.1296 24.4895 15.3866 24.9492 15.752 25.3149C16.1173 25.6806 16.5768 25.938 17.0795 26.0586C17.4043 26.1352 17.7721 26.1352 18.1995 26.1352H22.8662C23.2937 26.1352 23.6614 26.1352 23.9862 26.0586C24.4887 25.9382 24.948 25.681 25.3134 25.3157C25.6788 24.9503 25.9359 24.491 26.0563 23.9885C26.1329 23.6637 26.1329 23.296 26.1329 22.8685V18.2C26.1329 17.7725 26.1329 17.4048 26.0563 17.08C25.9362 16.5772 25.6792 16.1174 25.3138 15.7517C24.9484 15.386 24.4889 15.1286 23.9862 15.008C23.6614 14.9333 23.2955 14.9333 22.8662 14.9333H18.2929V14.9333ZM17.5145 16.8261C17.5947 16.8074 17.7198 16.8 18.2929 16.8H22.7729C23.3478 16.8 23.471 16.8056 23.5513 16.8261C23.719 16.8662 23.8723 16.952 23.9942 17.0739C24.1161 17.1958 24.2018 17.3491 24.2419 17.5168C24.2606 17.5952 24.2662 17.7184 24.2662 18.2933V22.7733C24.2662 23.3482 24.2587 23.4714 24.2401 23.5517C24.2 23.7194 24.1142 23.8727 23.9923 23.9946C23.8704 24.1165 23.7171 24.2023 23.5494 24.2424C23.471 24.261 23.3478 24.2666 22.7729 24.2666H18.2929C17.7179 24.2666 17.5947 24.2592 17.5145 24.2405C17.3468 24.2004 17.1935 24.1146 17.0716 23.9927C16.9497 23.8708 16.8639 23.7175 16.8238 23.5498C16.807 23.4733 16.7995 23.3501 16.7995 22.7733V18.2933C16.7995 17.7184 16.8051 17.5952 16.8257 17.5149C16.8658 17.3472 16.9515 17.1939 17.0735 17.072C17.1954 16.9501 17.3487 16.8643 17.5163 16.8242L17.5145 16.8261Z" fill="white"/>
</svg>
