<svg width="28" height="28" viewBox="0 0 28 28" fill="none" xmlns="http://www.w3.org/2000/svg">
<path d="M23.7263 16.8472L22.0886 15.4471C22.1662 14.9721 22.2062 14.4871 22.2062 14.002C22.2062 13.517 22.1662 13.032 22.0886 12.5569L23.7263 11.1568C23.8498 11.0511 23.9382 10.9103 23.9797 10.753C24.0213 10.5958 24.014 10.4297 23.9588 10.2768L23.9363 10.2118C23.4854 8.95174 22.8104 7.78368 21.9436 6.76403L21.8986 6.71152C21.7935 6.58789 21.6534 6.49902 21.4967 6.45662C21.34 6.41422 21.1742 6.42028 21.0211 6.47401L18.9884 7.19656C18.2384 6.58151 17.4008 6.09648 16.4958 5.75646L16.1032 3.63131C16.0736 3.4714 15.9961 3.32429 15.8808 3.20952C15.7656 3.09475 15.6182 3.01776 15.4582 2.98876L15.3907 2.97626C14.0881 2.74125 12.718 2.74125 11.4154 2.97626L11.3479 2.98876C11.1879 3.01776 11.0405 3.09475 10.9253 3.20952C10.81 3.32429 10.7325 3.4714 10.7029 3.63131L10.3078 5.76646C9.40999 6.10655 8.57388 6.59133 7.83266 7.20156L5.78502 6.47401C5.63192 6.41986 5.46597 6.41358 5.30922 6.456C5.15247 6.49843 5.01234 6.58755 4.90746 6.71152L4.86245 6.76403C3.99676 7.78441 3.32179 8.95227 2.86981 10.2118L2.84731 10.2768C2.73481 10.5893 2.82731 10.9393 3.07983 11.1568L4.73744 12.5719C4.65994 13.042 4.62244 13.522 4.62244 13.9995C4.62244 14.4796 4.65994 14.9596 4.73744 15.4271L3.07983 16.8422C2.95631 16.948 2.86791 17.0888 2.82637 17.246C2.78484 17.4032 2.79214 17.5693 2.84731 17.7223L2.86981 17.7873C3.32235 19.0474 3.99239 20.21 4.86245 21.235L4.90746 21.2875C5.0126 21.4112 5.15273 21.5 5.30939 21.5424C5.46605 21.5848 5.63187 21.5788 5.78502 21.5251L7.83266 20.7975C8.57771 21.41 9.41027 21.8951 10.3078 22.2326L10.7029 24.3677C10.7325 24.5277 10.81 24.6748 10.9253 24.7895C11.0405 24.9043 11.1879 24.9813 11.3479 25.0103L11.4154 25.0228C12.73 25.2591 14.0761 25.2591 15.3907 25.0228L15.4582 25.0103C15.6182 24.9813 15.7656 24.9043 15.8808 24.7895C15.9961 24.6748 16.0736 24.5277 16.1032 24.3677L16.4958 22.2426C17.4005 21.9035 18.2427 21.4169 18.9884 20.8025L21.0211 21.5251C21.1742 21.5792 21.3401 21.5855 21.4969 21.5431C21.6536 21.5006 21.7937 21.4115 21.8986 21.2875L21.9436 21.235C22.8137 20.2075 23.4837 19.0474 23.9363 17.7873L23.9588 17.7223C24.0713 17.4148 23.9788 17.0647 23.7263 16.8472ZM20.3135 12.8519C20.376 13.2295 20.4085 13.617 20.4085 14.0045C20.4085 14.3921 20.376 14.7796 20.3135 15.1571L20.1485 16.1597L22.0161 17.7573C21.733 18.4096 21.3756 19.027 20.9511 19.5974L18.6309 18.7749L17.8459 19.4199C17.2483 19.9099 16.5833 20.295 15.8632 20.565L14.9107 20.9225L14.4631 23.3477C13.757 23.4277 13.0441 23.4277 12.338 23.3477L11.8904 20.9175L10.9454 20.555C10.2328 20.285 9.57028 19.8999 8.97774 19.4124L8.19268 18.7649L5.85752 19.5949C5.43249 19.0224 5.07747 18.4048 4.79245 17.7548L6.68008 16.1422L6.51757 15.1421C6.45756 14.7696 6.42506 14.3846 6.42506 14.0045C6.42506 13.622 6.45506 13.2395 6.51757 12.8669L6.68008 11.8669L4.79245 10.2543C5.07497 9.60172 5.43249 8.98668 5.85752 8.41414L8.19268 9.2442L8.97774 8.59665C9.57028 8.10912 10.2328 7.72409 10.9454 7.45407L11.8929 7.09655L12.3405 4.66638C13.043 4.58637 13.7606 4.58637 14.4656 4.66638L14.9132 7.09155L15.8657 7.44907C16.5833 7.71909 17.2508 8.10412 17.8484 8.59415L18.6334 9.2392L20.9536 8.41664C21.3786 8.98918 21.7336 9.60672 22.0186 10.2568L20.151 11.8544L20.3135 12.8519ZM13.4055 9.35421C10.9754 9.35421 9.00524 11.3243 9.00524 13.7545C9.00524 16.1847 10.9754 18.1548 13.4055 18.1548C15.8357 18.1548 17.8059 16.1847 17.8059 13.7545C17.8059 11.3243 15.8357 9.35421 13.4055 9.35421ZM15.3857 15.7346C15.126 15.9951 14.8173 16.2016 14.4775 16.3424C14.1377 16.4831 13.7734 16.5553 13.4055 16.5547C12.658 16.5547 11.9554 16.2622 11.4254 15.7346C11.1649 15.4749 10.9584 15.1663 10.8177 14.8265C10.6769 14.4866 10.6048 14.1223 10.6054 13.7545C10.6054 13.007 10.8979 12.3044 11.4254 11.7744C11.9554 11.2443 12.658 10.9543 13.4055 10.9543C14.1531 10.9543 14.8556 11.2443 15.3857 11.7744C15.6461 12.0341 15.8527 12.3427 15.9934 12.6826C16.1342 13.0224 16.2063 13.3867 16.2057 13.7545C16.2057 14.5021 15.9132 15.2046 15.3857 15.7346Z" fill="white"/>
</svg>
