<svg width="28" height="28" viewBox="0 0 28 28" fill="none" xmlns="http://www.w3.org/2000/svg">
<path fill-rule="evenodd" clip-rule="evenodd" d="M22.5533 13.3C22.5533 13.0731 22.4632 12.8555 22.3028 12.6951C22.1424 12.5347 21.9248 12.4445 21.6979 12.4445L8.5216 12.4445L13.9057 7.06214C13.9852 6.98261 14.0483 6.88818 14.0914 6.78427C14.1344 6.68035 14.1566 6.56897 14.1566 6.45649C14.1566 6.34401 14.1344 6.23263 14.0914 6.12872C14.0483 6.0248 13.9852 5.93038 13.9057 5.85084C13.8262 5.77131 13.7318 5.70822 13.6278 5.66517C13.5239 5.62213 13.4125 5.59998 13.3001 5.59998C13.1876 5.59998 13.0762 5.62213 12.9723 5.66517C12.8684 5.70822 12.7739 5.77131 12.6944 5.85084L5.85093 12.6943C5.77126 12.7738 5.70806 12.8682 5.66493 12.9721C5.62181 13.076 5.59961 13.1875 5.59961 13.3C5.59961 13.4125 5.62181 13.5239 5.66493 13.6278C5.70806 13.7318 5.77126 13.8262 5.85093 13.9056L12.6944 20.7491C12.7739 20.8286 12.8684 20.8917 12.9723 20.9348C13.0762 20.9778 13.1876 21 13.3001 21C13.4125 21 13.5239 20.9778 13.6278 20.9348C13.7318 20.8917 13.8262 20.8286 13.9057 20.7491C13.9852 20.6696 14.0483 20.5752 14.0914 20.4712C14.1344 20.3673 14.1566 20.2559 14.1566 20.1435C14.1566 20.031 14.1344 19.9196 14.0914 19.8157C14.0483 19.7118 13.9852 19.6173 13.9057 19.5378L8.5216 14.1554L21.6979 14.1554C21.9248 14.1554 22.1424 14.0653 22.3028 13.9049C22.4632 13.7444 22.5533 13.5269 22.5533 13.3Z" fill="white"/>
</svg>
