<svg class="svg-icon" style="width: 1em; height: 1em;vertical-align: middle;fill: currentColor;overflow: hidden;" viewBox="0 0 1024 1024" version="1.1" xmlns="http://www.w3.org/2000/svg"><path d="M128 853.333333c0 0.064 768.064 0 768.064 0L896 170.666667H127.936L128 853.333333zM127.936 128h768.128C919.594667 128 938.666667 146.986667 938.666667 170.666667v682.666666c0 23.573333-19.029333 42.666667-42.602667 42.666667H127.936A42.56 42.56 0 0 1 85.333333 853.333333V170.666667c0-23.573333 19.029333-42.666667 42.602667-42.666667zM362.666667 298.666667v42.666666h298.666666v-42.666666H362.666667z m448 149.333333H213.333333v42.666667h597.333334v-42.666667z m-341.333334 128H213.333333v42.666667h256v-42.666667z m0 128H213.333333v42.666667h256v-42.666667z" fill="#ffffff" /></svg>
