<svg width="28" height="28" viewBox="0 0 28 28" fill="none" xmlns="http://www.w3.org/2000/svg">
<path d="M10.5 7C10.2679 7 10.0454 7.09219 9.88128 7.25628C9.71719 7.42038 9.625 7.64294 9.625 7.875V9.625C9.625 9.85706 9.71719 10.0796 9.88128 10.2437C10.0454 10.4078 10.2679 10.5 10.5 10.5H17.5C17.7321 10.5 17.9546 10.4078 18.1187 10.2437C18.2828 10.0796 18.375 9.85706 18.375 9.625V7.875C18.375 7.64294 18.2828 7.42038 18.1187 7.25628C17.9546 7.09219 17.7321 7 17.5 7H10.5Z" fill="white"/>
<path d="M3.5 2.625C3.5 2.16087 3.68438 1.71575 4.01256 1.38756C4.34075 1.05937 4.78587 0.875 5.25 0.875H23.625C24.0891 0.875 24.5342 1.05937 24.8624 1.38756C25.1906 1.71575 25.375 2.16087 25.375 2.625V24.5C25.375 24.9641 25.1906 25.4092 24.8624 25.7374C24.5342 26.0656 24.0891 26.25 23.625 26.25H5.25C4.78587 26.25 4.34075 26.0656 4.01256 25.7374C3.68438 25.4092 3.5 24.9641 3.5 24.5V21.6475C3.0973 21.3905 2.76592 21.036 2.5365 20.617C2.30709 20.1979 2.18706 19.7277 2.1875 19.25C2.1875 18.3068 2.64688 17.4703 3.35388 16.9531C2.9922 16.6893 2.69801 16.3437 2.49531 15.9445C2.29261 15.5454 2.18714 15.1039 2.1875 14.6562C2.1875 13.713 2.64688 12.8765 3.35388 12.3594C2.9922 12.0955 2.69801 11.7499 2.49531 11.3508C2.29261 10.9516 2.18714 10.5102 2.1875 10.0625C2.1875 9.11925 2.64688 8.28275 3.35388 7.76562C2.9922 7.50179 2.69801 7.15619 2.49531 6.75703C2.29261 6.35786 2.18714 5.91643 2.1875 5.46875C2.1873 4.99105 2.30744 4.521 2.53683 4.10198C2.76622 3.68296 3.09747 3.32847 3.5 3.07125V2.625ZM5.25 17.7345V21.875H23.625V2.625H5.25V2.63375C5.44513 2.64775 5.635 2.68275 5.81788 2.73525C5.99463 2.71337 6.29475 2.85512 6.61413 3.10625C6.97143 3.34556 7.26976 3.66284 7.48665 4.03417C7.70354 4.40551 7.83333 4.82122 7.86625 5.25H7.875C7.875 5.42405 7.80586 5.59097 7.68279 5.71404C7.55972 5.83711 7.3928 5.90625 7.21875 5.90625C7.0447 5.90625 6.87778 5.83711 6.75471 5.71404C6.63164 5.59097 6.5625 5.42405 6.5625 5.25H6.54675C6.49939 4.9229 6.34752 4.61989 6.11382 4.38619C5.88011 4.15248 5.5771 4.00061 5.25 3.95325V7.22662C5.44513 7.2415 5.635 7.2765 5.81788 7.329C5.99463 7.30713 6.29475 7.44888 6.61413 7.7C6.97159 7.93922 7.27009 8.25645 7.48714 8.62779C7.70418 8.99913 7.83411 9.4149 7.86713 9.84375H7.875C7.875 10.0178 7.80586 10.1847 7.68279 10.3078C7.55972 10.4309 7.3928 10.5 7.21875 10.5C7.0447 10.5 6.87778 10.4309 6.75471 10.3078C6.63164 10.1847 6.5625 10.0178 6.5625 9.84375H6.54675C6.49939 9.51665 6.34752 9.21364 6.11382 8.97994C5.88011 8.74623 5.5771 8.59436 5.25 8.547V11.8204C5.44513 11.8361 5.635 11.8703 5.81788 11.9228C5.99463 11.9018 6.29475 12.0418 6.61413 12.2938C6.97143 12.5331 7.26976 12.8503 7.48665 13.2217C7.70354 13.593 7.83333 14.0087 7.86625 14.4375H7.875C7.875 14.6115 7.80586 14.7785 7.68279 14.9015C7.55972 15.0246 7.3928 15.0938 7.21875 15.0938C7.0447 15.0938 6.87778 15.0246 6.75471 14.9015C6.63164 14.7785 6.5625 14.6115 6.5625 14.4375H6.54675C6.49939 14.1104 6.34752 13.8074 6.11382 13.5737C5.88011 13.34 5.5771 13.1881 5.25 13.1407V16.4141C5.44513 16.429 5.635 16.464 5.81788 16.5165C5.99463 16.4955 6.29475 16.6355 6.61413 16.8866C6.97154 17.126 7.26994 17.4434 7.48683 17.8149C7.70373 18.1864 7.83346 18.6023 7.86625 19.0312H7.875C7.875 19.2053 7.80586 19.3722 7.68279 19.4953C7.55972 19.6184 7.3928 19.6875 7.21875 19.6875C7.0447 19.6875 6.87778 19.6184 6.75471 19.4953C6.63164 19.3722 6.5625 19.2053 6.5625 19.0312H6.54675C6.49939 18.7042 6.34752 18.4011 6.11382 18.1674C5.88011 17.9337 5.5771 17.7819 5.25 17.7345ZM5.25 23.625V24.5H23.625V23.625H5.25Z" fill="white"/>
</svg>
