<svg width="28" height="28" viewBox="0 0 28 28" fill="none" xmlns="http://www.w3.org/2000/svg">
<path d="M12.25 13.125C12.25 12.8929 12.3422 12.6704 12.5063 12.5063C12.6704 12.3422 12.8929 12.25 13.125 12.25H18.375C18.6071 12.25 18.8296 12.3422 18.9937 12.5063C19.1578 12.6704 19.25 12.8929 19.25 13.125C19.25 13.3571 19.1578 13.5796 18.9937 13.7437C18.8296 13.9078 18.6071 14 18.375 14H13.125C12.8929 14 12.6704 13.9078 12.5063 13.7437C12.3422 13.5796 12.25 13.3571 12.25 13.125ZM12.25 18.375C12.25 18.1429 12.3422 17.9204 12.5063 17.7563C12.6704 17.5922 12.8929 17.5 13.125 17.5H18.375C18.6071 17.5 18.8296 17.5922 18.9937 17.7563C19.1578 17.9204 19.25 18.1429 19.25 18.375C19.25 18.6071 19.1578 18.8296 18.9937 18.9937C18.8296 19.1578 18.6071 19.25 18.375 19.25H13.125C12.8929 19.25 12.6704 19.1578 12.5063 18.9937C12.3422 18.8296 12.25 18.6071 12.25 18.375ZM9.625 14C9.85706 14 10.0796 13.9078 10.2437 13.7437C10.4078 13.5796 10.5 13.3571 10.5 13.125C10.5 12.8929 10.4078 12.6704 10.2437 12.5063C10.0796 12.3422 9.85706 12.25 9.625 12.25C9.39294 12.25 9.17038 12.3422 9.00628 12.5063C8.84219 12.6704 8.75 12.8929 8.75 13.125C8.75 13.3571 8.84219 13.5796 9.00628 13.7437C9.17038 13.9078 9.39294 14 9.625 14V14ZM9.625 19.25C9.85706 19.25 10.0796 19.1578 10.2437 18.9937C10.4078 18.8296 10.5 18.6071 10.5 18.375C10.5 18.1429 10.4078 17.9204 10.2437 17.7563C10.0796 17.5922 9.85706 17.5 9.625 17.5C9.39294 17.5 9.17038 17.5922 9.00628 17.7563C8.84219 17.9204 8.75 18.1429 8.75 18.375C8.75 18.6071 8.84219 18.8296 9.00628 18.9937C9.17038 19.1578 9.39294 19.25 9.625 19.25V19.25ZM8.89875 3.5C9.07977 2.98799 9.41514 2.54473 9.85864 2.2313C10.3021 1.91787 10.8319 1.74972 11.375 1.75H16.625C17.1681 1.74972 17.6979 1.91787 18.1414 2.2313C18.5849 2.54473 18.9202 2.98799 19.1012 3.5H20.125C20.8212 3.5 21.4889 3.77656 21.9812 4.26885C22.4734 4.76113 22.75 5.42881 22.75 6.125V23.625C22.75 24.3212 22.4734 24.9889 21.9812 25.4812C21.4889 25.9734 20.8212 26.25 20.125 26.25H7.875C7.17881 26.25 6.51113 25.9734 6.01884 25.4812C5.52656 24.9889 5.25 24.3212 5.25 23.625V6.125C5.25 5.42881 5.52656 4.76113 6.01884 4.26885C6.51113 3.77656 7.17881 3.5 7.875 3.5H8.89875ZM11.375 3.5C11.1429 3.5 10.9204 3.59219 10.7563 3.75628C10.5922 3.92038 10.5 4.14294 10.5 4.375C10.5 4.60706 10.5922 4.82962 10.7563 4.99372C10.9204 5.15781 11.1429 5.25 11.375 5.25H16.625C16.8571 5.25 17.0796 5.15781 17.2437 4.99372C17.4078 4.82962 17.5 4.60706 17.5 4.375C17.5 4.14294 17.4078 3.92038 17.2437 3.75628C17.0796 3.59219 16.8571 3.5 16.625 3.5H11.375ZM8.89875 5.25H7.875C7.64294 5.25 7.42038 5.34219 7.25628 5.50628C7.09219 5.67038 7 5.89294 7 6.125V23.625C7 23.8571 7.09219 24.0796 7.25628 24.2437C7.42038 24.4078 7.64294 24.5 7.875 24.5H20.125C20.3571 24.5 20.5796 24.4078 20.7437 24.2437C20.9078 24.0796 21 23.8571 21 23.625V6.125C21 5.89294 20.9078 5.67038 20.7437 5.50628C20.5796 5.34219 20.3571 5.25 20.125 5.25H19.1012C18.9202 5.76201 18.5849 6.20528 18.1414 6.5187C17.6979 6.83213 17.1681 7.00029 16.625 7H11.375C10.8319 7.00029 10.3021 6.83213 9.85864 6.5187C9.41514 6.20528 9.07977 5.76201 8.89875 5.25V5.25Z" fill="white"/>
</svg>
