<svg width="28" height="28" viewBox="0 0 28 28" fill="none" xmlns="http://www.w3.org/2000/svg">
<path opacity="0.4" d="M12.3786 21.9576C14.5039 21.9572 16.5679 21.2457 18.242 19.9365L23.5056 25.2L25.1986 23.507L19.9351 18.2435C21.245 16.5692 21.9569 14.5047 21.9574 12.3788C21.9574 7.09733 17.6601 2.80005 12.3786 2.80005C7.09709 2.80005 2.7998 7.09733 2.7998 12.3788C2.7998 17.6603 7.09709 21.9576 12.3786 21.9576ZM12.3786 5.19475C16.3406 5.19475 19.5627 8.41681 19.5627 12.3788C19.5627 16.3409 16.3406 19.5629 12.3786 19.5629C8.41657 19.5629 5.1945 16.3409 5.1945 12.3788C5.1945 8.41681 8.41657 5.19475 12.3786 5.19475Z" fill="black"/>
</svg>
