<svg width="28" height="28" viewBox="0 0 28 28" fill="none" xmlns="http://www.w3.org/2000/svg">
<g clip-path="url(#clip0_2341_2299)">
<path d="M24.7701 18.4904C24.8696 17.9506 24.8696 17.3994 24.7701 16.8596L25.7578 16.2892C25.8726 16.2241 25.9224 16.0902 25.8841 15.9638C25.6276 15.1369 25.1874 14.3866 24.6132 13.7665C24.5251 13.6708 24.3835 13.6478 24.2686 13.7129L23.281 14.2833C22.8637 13.9273 22.3852 13.6516 21.8684 13.4679V12.3271C21.8684 12.197 21.7765 12.0821 21.6502 12.0553C20.7965 11.8639 19.9275 11.8716 19.116 12.0553C18.9896 12.0821 18.8978 12.197 18.8978 12.3271V13.4679C18.381 13.6516 17.9025 13.9273 17.4852 14.2833L16.4975 13.7129C16.3865 13.6478 16.2411 13.6708 16.153 13.7665C15.5788 14.3866 15.1386 15.1369 14.8821 15.9638C14.8438 16.0902 14.8974 16.2241 15.0084 16.2892L15.9961 16.8596C15.8965 17.3994 15.8965 17.9506 15.9961 18.4904L15.0084 19.0608C14.8936 19.1259 14.8438 19.2598 14.8821 19.3862C15.1386 20.213 15.5788 20.9595 16.153 21.5835C16.2411 21.6792 16.3827 21.7022 16.4975 21.6371L17.4852 21.0667C17.9025 21.4227 18.381 21.6984 18.8978 21.8821V23.0229C18.8978 23.153 18.9896 23.2679 19.116 23.2947C19.9696 23.4861 20.8386 23.4784 21.6502 23.2947C21.7765 23.2679 21.8684 23.153 21.8684 23.0229V21.8821C22.3852 21.6984 22.8637 21.4227 23.281 21.0667L24.2686 21.6371C24.3796 21.7022 24.5251 21.6792 24.6132 21.5835C25.1874 20.9634 25.6276 20.213 25.8841 19.3862C25.9224 19.2598 25.8688 19.1259 25.7578 19.0608L24.7701 18.4904V18.4904ZM20.3869 19.5316C19.361 19.5316 18.5303 18.6971 18.5303 17.675C18.5303 16.6529 19.3648 15.8184 20.3869 15.8184C21.409 15.8184 22.2436 16.6529 22.2436 17.675C22.2436 18.6971 21.4129 19.5316 20.3869 19.5316ZM9.97441 14C12.6809 14 14.8744 11.8065 14.8744 9.1C14.8744 6.39351 12.6809 4.2 9.97441 4.2C7.26793 4.2 5.07441 6.39351 5.07441 9.1C5.07441 11.8065 7.26793 14 9.97441 14ZM17.6766 22.6707C17.5886 22.6248 17.5005 22.5712 17.4163 22.5214L17.1139 22.6975C16.8842 22.8277 16.6239 22.9004 16.3636 22.9004C15.9463 22.9004 15.5443 22.7243 15.2572 22.418C14.5567 21.6601 14.0207 20.7375 13.7183 19.7537C13.5078 19.0761 13.7911 18.3602 14.4036 18.0042L14.706 17.8281C14.7021 17.7286 14.7021 17.6291 14.706 17.5295L14.4036 17.3534C13.7911 17.0012 13.5078 16.2816 13.7183 15.604C13.7528 15.493 13.8025 15.382 13.8408 15.2709C13.6954 15.2595 13.5537 15.225 13.4044 15.225H12.7651C11.9153 15.6155 10.9697 15.8375 9.97441 15.8375C8.9791 15.8375 8.03738 15.6155 7.18371 15.225H6.54441C3.70395 15.225 1.39941 17.5295 1.39941 20.37V21.9625C1.39941 22.977 2.22246 23.8 3.23691 23.8H16.7119C17.0986 23.8 17.4584 23.6775 17.7532 23.4746C17.7072 23.3291 17.6766 23.1798 17.6766 23.0229V22.6707Z" fill="white"/>
</g>
<defs>
<clipPath id="clip0_2341_2299">
<rect width="24.5" height="19.6" fill="white" transform="translate(1.39941 4.2)"/>
</clipPath>
</defs>
</svg>
