<svg width="28" height="28" viewBox="0 0 28 28" fill="none" xmlns="http://www.w3.org/2000/svg">
<path fill-rule="evenodd" clip-rule="evenodd" d="M16.3337 8.16666C16.0242 8.16666 15.7275 8.28958 15.5087 8.50837C15.2899 8.72717 15.167 9.02391 15.167 9.33333V18.6667C15.167 18.9761 15.2899 19.2728 15.5087 19.4916C15.7275 19.7104 16.0242 19.8333 16.3337 19.8333H21.0003C21.3097 19.8333 21.6065 19.7104 21.8253 19.4916C22.0441 19.2728 22.167 18.9761 22.167 18.6667V9.33333C22.167 9.02391 22.0441 8.72717 21.8253 8.50837C21.6065 8.28958 21.3097 8.16666 21.0003 8.16666H16.3337ZM19.8337 10.5H17.5003V17.5H19.8337V10.5Z" fill="white"/>
<path d="M7.00065 8.16666C6.69123 8.16666 6.39449 8.28958 6.17569 8.50837C5.9569 8.72717 5.83398 9.02391 5.83398 9.33333C5.83398 9.64275 5.9569 9.9395 6.17569 10.1583C6.39449 10.3771 6.69123 10.5 7.00065 10.5H11.6673C11.9767 10.5 12.2735 10.3771 12.4923 10.1583C12.7111 9.9395 12.834 9.64275 12.834 9.33333C12.834 9.02391 12.7111 8.72717 12.4923 8.50837C12.2735 8.28958 11.9767 8.16666 11.6673 8.16666H7.00065ZM7.00065 12.8333C6.69123 12.8333 6.39449 12.9562 6.17569 13.175C5.9569 13.3938 5.83398 13.6906 5.83398 14C5.83398 14.3094 5.9569 14.6062 6.17569 14.825C6.39449 15.0437 6.69123 15.1667 7.00065 15.1667H11.6673C11.9767 15.1667 12.2735 15.0437 12.4923 14.825C12.7111 14.6062 12.834 14.3094 12.834 14C12.834 13.6906 12.7111 13.3938 12.4923 13.175C12.2735 12.9562 11.9767 12.8333 11.6673 12.8333H7.00065ZM5.83398 18.6667C5.83398 18.3572 5.9569 18.0605 6.17569 17.8417C6.39449 17.6229 6.69123 17.5 7.00065 17.5H11.6673C11.9767 17.5 12.2735 17.6229 12.4923 17.8417C12.7111 18.0605 12.834 18.3572 12.834 18.6667C12.834 18.9761 12.7111 19.2728 12.4923 19.4916C12.2735 19.7104 11.9767 19.8333 11.6673 19.8333H7.00065C6.69123 19.8333 6.39449 19.7104 6.17569 19.4916C5.9569 19.2728 5.83398 18.9761 5.83398 18.6667Z" fill="white"/>
<path fill-rule="evenodd" clip-rule="evenodd" d="M4.66699 3.5C3.73873 3.5 2.8485 3.86875 2.19212 4.52513C1.53574 5.1815 1.16699 6.07174 1.16699 7V21C1.16699 21.9283 1.53574 22.8185 2.19212 23.4749C2.8485 24.1313 3.73873 24.5 4.66699 24.5H23.3337C24.2619 24.5 25.1522 24.1313 25.8085 23.4749C26.4649 22.8185 26.8337 21.9283 26.8337 21V7C26.8337 6.07174 26.4649 5.1815 25.8085 4.52513C25.1522 3.86875 24.2619 3.5 23.3337 3.5H4.66699ZM23.3337 5.83333H4.66699C4.35757 5.83333 4.06083 5.95625 3.84203 6.17504C3.62324 6.39383 3.50033 6.69058 3.50033 7V21C3.50033 21.3094 3.62324 21.6062 3.84203 21.825C4.06083 22.0438 4.35757 22.1667 4.66699 22.1667H23.3337C23.6431 22.1667 23.9398 22.0438 24.1586 21.825C24.3774 21.6062 24.5003 21.3094 24.5003 21V7C24.5003 6.69058 24.3774 6.39383 24.1586 6.17504C23.9398 5.95625 23.6431 5.83333 23.3337 5.83333Z" fill="white"/>
</svg>
