<svg width="28" height="28" viewBox="0 0 28 28" fill="none" xmlns="http://www.w3.org/2000/svg">
<path d="M13.9997 2.33333C7.56667 2.33333 2.33301 7.56699 2.33301 14V18.8335C2.33301 20.0282 3.37951 21 4.66634 21H5.83301C6.14243 21 6.43917 20.8771 6.65797 20.6583C6.87676 20.4395 6.99967 20.1427 6.99967 19.8333V13.8332C6.99967 13.5237 6.87676 13.227 6.65797 13.0082C6.43917 12.7894 6.14243 12.6665 5.83301 12.6665H4.77367C5.42234 8.1515 9.30734 4.66666 13.9997 4.66666C18.692 4.66666 22.577 8.1515 23.2257 12.6665H22.1663C21.8569 12.6665 21.5602 12.7894 21.3414 13.0082C21.1226 13.227 20.9997 13.5237 20.9997 13.8332V21C20.9997 22.2868 19.9532 23.3333 18.6663 23.3333H16.333V22.1667H11.6663V25.6667H18.6663C21.24 25.6667 23.333 23.5737 23.333 21C24.6198 21 25.6663 20.0282 25.6663 18.8335V14C25.6663 7.56699 20.4327 2.33333 13.9997 2.33333Z" fill="white"/>
</svg>
